<svg xmlns="http://www.w3.org/2000/svg" xmlns:xlink="http://www.w3.org/1999/xlink" width="500" zoomAndPan="magnify" viewBox="0 0 375 374.999991" height="500" preserveAspectRatio="xMidYMid meet" version="1.0"><defs><g/><clipPath id="7a7a95420d"><path d="M 16.675781 17 L 346.546875 17 L 346.546875 358 L 16.675781 358 Z M 16.675781 17 " clip-rule="nonzero"/></clipPath></defs><g clip-path="url(#7a7a95420d)"><path fill="#ffffff" d="M 140.140625 22.625 C 142.8125 21.953125 145.5 21.347656 148.203125 20.808594 C 150.902344 20.273438 153.617188 19.796875 156.339844 19.390625 C 159.066406 18.984375 161.796875 18.640625 164.539062 18.367188 C 167.28125 18.09375 170.027344 17.886719 172.777344 17.742188 C 175.527344 17.601562 178.28125 17.527344 181.039062 17.519531 C 183.792969 17.511719 186.546875 17.570312 189.296875 17.695312 C 192.050781 17.820312 194.796875 18.015625 197.539062 18.273438 C 200.28125 18.53125 203.015625 18.859375 205.742188 19.25 C 208.46875 19.640625 211.1875 20.097656 213.890625 20.621094 C 216.59375 21.144531 219.285156 21.734375 221.960938 22.390625 C 224.636719 23.042969 227.296875 23.761719 229.9375 24.546875 C 232.578125 25.328125 235.199219 26.175781 237.796875 27.085938 C 240.398438 27.996094 242.972656 28.96875 245.527344 30.003906 C 248.078125 31.039062 250.605469 32.136719 253.101562 33.292969 C 255.601562 34.449219 258.070312 35.667969 260.511719 36.945312 C 262.949219 38.222656 265.359375 39.558594 267.734375 40.953125 C 270.109375 42.347656 272.445312 43.800781 274.75 45.308594 C 277.054688 46.816406 279.320312 48.378906 281.550781 49.996094 C 283.777344 51.617188 285.964844 53.285156 288.113281 55.011719 C 290.257812 56.734375 292.363281 58.511719 294.421875 60.335938 C 296.484375 62.164062 298.5 64.039062 300.46875 65.960938 C 302.4375 67.886719 304.359375 69.855469 306.230469 71.875 C 308.105469 73.890625 309.929688 75.953125 311.703125 78.058594 C 313.472656 80.164062 315.195312 82.3125 316.863281 84.5 C 318.53125 86.691406 320.148438 88.917969 321.707031 91.183594 C 323.265625 93.453125 324.769531 95.757812 326.21875 98.097656 C 327.667969 100.4375 329.058594 102.8125 330.390625 105.21875 C 331.722656 107.628906 332.996094 110.066406 334.210938 112.539062 C 335.425781 115.007812 336.578125 117.503906 337.667969 120.03125 C 338.761719 122.554688 339.792969 125.105469 340.761719 127.683594 C 341.730469 130.257812 342.632812 132.855469 343.476562 135.476562 C 344.316406 138.097656 345.09375 140.734375 345.808594 143.390625 C 346.074219 144.371094 346.332031 145.371094 346.582031 146.390625 L 343.984375 147.296875 C 343.71875 146.230469 343.445312 145.164062 343.15625 144.097656 C 342.453125 141.464844 341.679688 138.847656 340.847656 136.253906 C 340.011719 133.65625 339.113281 131.082031 338.152344 128.527344 C 337.191406 125.976562 336.167969 123.449219 335.082031 120.945312 C 334 118.445312 332.851562 115.96875 331.648438 113.523438 C 330.441406 111.078125 329.175781 108.660156 327.851562 106.277344 C 326.527344 103.894531 325.144531 101.542969 323.703125 99.226562 C 322.265625 96.90625 320.769531 94.628906 319.21875 92.382812 C 317.664062 90.140625 316.058594 87.9375 314.398438 85.769531 C 312.742188 83.605469 311.027344 81.480469 309.265625 79.398438 C 307.5 77.320312 305.6875 75.28125 303.824219 73.289062 C 301.960938 71.296875 300.046875 69.347656 298.089844 67.449219 C 296.128906 65.550781 294.125 63.699219 292.074219 61.898438 C 290.027344 60.097656 287.933594 58.347656 285.796875 56.648438 C 283.660156 54.949219 281.484375 53.304688 279.269531 51.710938 C 277.050781 50.117188 274.796875 48.582031 272.507812 47.097656 C 270.214844 45.617188 267.886719 44.191406 265.527344 42.820312 C 263.164062 41.453125 260.769531 40.144531 258.34375 38.890625 C 255.917969 37.640625 253.464844 36.449219 250.980469 35.316406 C 248.496094 34.183594 245.984375 33.113281 243.449219 32.105469 C 240.910156 31.097656 238.351562 30.152344 235.769531 29.269531 C 233.1875 28.382812 230.582031 27.566406 227.960938 26.808594 C 225.335938 26.050781 222.695312 25.359375 220.039062 24.734375 C 217.382812 24.105469 214.710938 23.542969 212.027344 23.046875 C 209.339844 22.550781 206.644531 22.121094 203.9375 21.757812 C 201.234375 21.390625 198.519531 21.09375 195.800781 20.859375 C 193.078125 20.628906 190.355469 20.464844 187.625 20.363281 C 184.898438 20.265625 182.167969 20.234375 179.4375 20.269531 C 176.707031 20.304688 173.980469 20.40625 171.253906 20.574219 C 168.527344 20.742188 165.808594 20.976562 163.097656 21.277344 C 160.382812 21.578125 157.675781 21.945312 154.980469 22.378906 C 152.285156 22.8125 149.601562 23.308594 146.929688 23.875 C 144.261719 24.4375 141.605469 25.070312 138.964844 25.761719 C 139.375 24.726562 139.773438 23.6875 140.140625 22.628906 Z M 19.277344 227.972656 C 19.496094 228.847656 19.71875 229.714844 19.953125 230.589844 C 20.660156 233.230469 21.433594 235.855469 22.273438 238.457031 C 23.109375 241.058594 24.011719 243.640625 24.976562 246.199219 C 25.9375 248.757812 26.964844 251.289062 28.054688 253.800781 C 29.144531 256.308594 30.292969 258.789062 31.503906 261.238281 C 32.714844 263.691406 33.984375 266.113281 35.3125 268.5 C 36.640625 270.890625 38.03125 273.246094 39.476562 275.566406 C 40.921875 277.890625 42.421875 280.175781 43.980469 282.421875 C 45.539062 284.671875 47.148438 286.878906 48.816406 289.046875 C 50.480469 291.21875 52.199219 293.34375 53.96875 295.429688 C 55.742188 297.515625 57.5625 299.554688 59.433594 301.550781 C 61.304688 303.546875 63.222656 305.492188 65.1875 307.394531 C 67.15625 309.296875 69.167969 311.148438 71.226562 312.953125 C 73.285156 314.753906 75.382812 316.507812 77.527344 318.207031 C 79.671875 319.90625 81.855469 321.550781 84.082031 323.144531 C 86.304688 324.738281 88.566406 326.273438 90.867188 327.757812 C 93.167969 329.238281 95.503906 330.664062 97.875 332.03125 C 100.242188 333.398438 102.644531 334.707031 105.082031 335.957031 C 107.515625 337.207031 109.980469 338.394531 112.472656 339.523438 C 114.964844 340.652344 117.484375 341.722656 120.03125 342.726562 C 122.574219 343.730469 125.144531 344.675781 127.734375 345.554688 C 130.328125 346.433594 132.9375 347.25 135.570312 348 C 138.203125 348.75 140.851562 349.4375 143.515625 350.058594 C 146.183594 350.679688 148.863281 351.238281 151.554688 351.726562 C 154.25 352.21875 156.953125 352.640625 159.664062 353 C 162.378906 353.359375 165.101562 353.648438 167.828125 353.875 C 170.554688 354.097656 173.289062 354.253906 176.023438 354.347656 C 178.757812 354.4375 181.496094 354.460938 184.234375 354.417969 C 186.96875 354.371094 189.703125 354.261719 192.433594 354.085938 C 195.167969 353.90625 197.890625 353.664062 200.613281 353.351562 C 203.332031 353.039062 206.042969 352.660156 208.742188 352.21875 C 211.445312 351.773438 214.132812 351.265625 216.808594 350.6875 C 219.484375 350.113281 222.144531 349.472656 224.789062 348.765625 C 224.359375 349.800781 223.949219 350.847656 223.566406 351.90625 C 220.890625 352.585938 218.199219 353.199219 215.492188 353.75 C 212.789062 354.300781 210.070312 354.785156 207.339844 355.203125 C 204.613281 355.621094 201.875 355.96875 199.128906 356.253906 C 196.382812 356.539062 193.628906 356.757812 190.871094 356.90625 C 188.113281 357.058594 185.355469 357.140625 182.59375 357.15625 C 179.832031 357.175781 177.074219 357.125 174.316406 357.003906 C 171.554688 356.886719 168.800781 356.703125 166.050781 356.449219 C 163.304688 356.199219 160.5625 355.878906 157.828125 355.496094 C 155.09375 355.109375 152.371094 354.660156 149.65625 354.140625 C 146.945312 353.625 144.246094 353.039062 141.5625 352.390625 C 138.878906 351.742188 136.214844 351.027344 133.566406 350.25 C 130.917969 349.472656 128.289062 348.628906 125.679688 347.722656 C 123.070312 346.816406 120.488281 345.847656 117.925781 344.816406 C 115.367188 343.78125 112.832031 342.6875 110.324219 341.535156 C 107.820312 340.378906 105.339844 339.164062 102.894531 337.886719 C 100.445312 336.613281 98.03125 335.277344 95.648438 333.882812 C 93.265625 332.492188 90.917969 331.039062 88.605469 329.53125 C 86.292969 328.023438 84.019531 326.460938 81.78125 324.84375 C 79.546875 323.226562 77.351562 321.554688 75.195312 319.828125 C 73.042969 318.105469 70.933594 316.328125 68.863281 314.5 C 66.796875 312.671875 64.773438 310.796875 62.796875 308.871094 C 60.820312 306.945312 58.894531 304.972656 57.011719 302.953125 C 55.132812 300.933594 53.304688 298.867188 51.523438 296.761719 C 49.746094 294.652344 48.019531 292.5 46.34375 290.308594 C 44.667969 288.117188 43.046875 285.882812 41.484375 283.613281 C 39.917969 281.339844 38.40625 279.03125 36.953125 276.6875 C 35.5 274.34375 34.105469 271.964844 32.769531 269.550781 C 31.433594 267.136719 30.15625 264.695312 28.9375 262.21875 C 27.71875 259.746094 26.5625 257.242188 25.464844 254.710938 C 24.371094 252.179688 23.335938 249.625 22.367188 247.042969 C 21.394531 244.460938 20.488281 241.855469 19.640625 239.230469 C 18.796875 236.605469 18.019531 233.960938 17.304688 231.296875 C 17.089844 230.496094 16.882812 229.6875 16.675781 228.886719 Z M 19.277344 227.972656 " fill-opacity="1" fill-rule="evenodd"/></g><g fill="#ffffff" fill-opacity="1"><g transform="translate(38.820463, 241.106014)"><g><path d="M 24.09375 -2.265625 C 23.40625 -1.703125 22.300781 -1.132812 20.78125 -0.5625 C 19.269531 0.0078125 17.617188 0.296875 15.828125 0.296875 C 12.972656 0.296875 10.488281 -0.320312 8.375 -1.5625 C 6.269531 -2.800781 4.65625 -4.46875 3.53125 -6.5625 C 2.414062 -8.664062 1.859375 -10.972656 1.859375 -13.484375 C 1.859375 -16.242188 2.414062 -18.703125 3.53125 -20.859375 C 4.65625 -23.015625 6.222656 -24.695312 8.234375 -25.90625 C 10.242188 -27.113281 12.566406 -27.71875 15.203125 -27.71875 C 16.859375 -27.71875 18.394531 -27.492188 19.8125 -27.046875 C 21.226562 -26.597656 22.472656 -26.039062 23.546875 -25.375 L 21.421875 -20.265625 C 19.453125 -21.753906 17.441406 -22.5 15.390625 -22.5 C 13.992188 -22.5 12.6875 -22.113281 11.46875 -21.34375 C 10.25 -20.570312 9.28125 -19.519531 8.5625 -18.1875 C 7.84375 -16.863281 7.484375 -15.394531 7.484375 -13.78125 C 7.484375 -12.019531 7.816406 -10.472656 8.484375 -9.140625 C 9.160156 -7.816406 10.117188 -6.78125 11.359375 -6.03125 C 12.597656 -5.289062 14.050781 -4.921875 15.71875 -4.921875 C 17.0625 -4.921875 18.265625 -5.132812 19.328125 -5.5625 C 20.398438 -6 21.242188 -6.515625 21.859375 -7.109375 Z M 24.09375 -2.265625 "/></g></g></g><g fill="#ffffff" fill-opacity="1"><g transform="translate(94.583225, 241.106014)"><g><path d="M 17.09375 -5.359375 L 8.015625 -5.359375 L 5.78125 0 L 0.453125 0 L 12.8125 -28.5 L 13.109375 -28.5 L 25.484375 0 L 19.21875 0 Z M 15.3125 -9.90625 L 12.671875 -16.578125 L 9.90625 -9.90625 Z M 15.3125 -9.90625 "/></g></g></g><g fill="#ffffff" fill-opacity="1"><g transform="translate(150.308752, 241.106014)"><g><path d="M 31.78125 -28.53125 L 31.78125 0 L 26.375 0 L 26.375 -13.078125 L 17.4375 -0.375 L 17.359375 -0.375 L 8.75 -12.25 L 8.75 0 L 3.53125 0 L 3.53125 -28.53125 L 3.578125 -28.53125 L 17.46875 -8.828125 L 31.703125 -28.53125 Z M 31.78125 -28.53125 "/></g></g></g><g fill="#ffffff" fill-opacity="1"><g transform="translate(215.418344, 241.106014)"><g><path d="M 11.84375 -27.421875 C 15.195312 -27.421875 17.789062 -26.59375 19.625 -24.9375 C 21.46875 -23.289062 22.390625 -21.035156 22.390625 -18.171875 C 22.390625 -16.535156 22.070312 -15.003906 21.4375 -13.578125 C 20.800781 -12.148438 19.769531 -10.972656 18.34375 -10.046875 C 16.914062 -9.128906 15.070312 -8.671875 12.8125 -8.671875 L 8.9375 -8.671875 L 8.9375 0 L 3.53125 0 L 3.53125 -27.421875 Z M 12.78125 -13.9375 C 13.789062 -13.9375 14.609375 -14.164062 15.234375 -14.625 C 15.859375 -15.082031 16.304688 -15.617188 16.578125 -16.234375 C 16.847656 -16.859375 16.984375 -17.457031 16.984375 -18.03125 C 16.984375 -19 16.695312 -19.9375 16.125 -20.84375 C 15.550781 -21.75 14.445312 -22.203125 12.8125 -22.203125 L 8.9375 -22.203125 L 8.9375 -13.9375 Z M 12.78125 -13.9375 "/></g></g></g><g fill="#ffffff" fill-opacity="1"><g transform="translate(268.909562, 241.106014)"><g><path d="M 8.375 -10.125 C 8.375 -9.257812 8.632812 -8.425781 9.15625 -7.625 C 9.6875 -6.832031 10.382812 -6.1875 11.25 -5.6875 C 12.113281 -5.195312 13.046875 -4.953125 14.046875 -4.953125 C 15.109375 -4.953125 16.085938 -5.195312 16.984375 -5.6875 C 17.878906 -6.1875 18.582031 -6.832031 19.09375 -7.625 C 19.601562 -8.425781 19.859375 -9.257812 19.859375 -10.125 L 19.859375 -27.421875 L 25.1875 -27.421875 L 25.1875 -10.015625 C 25.1875 -8.054688 24.6875 -6.285156 23.6875 -4.703125 C 22.695312 -3.128906 21.347656 -1.898438 19.640625 -1.015625 C 17.941406 -0.140625 16.078125 0.296875 14.046875 0.296875 C 12.003906 0.296875 10.140625 -0.140625 8.453125 -1.015625 C 6.765625 -1.898438 5.429688 -3.128906 4.453125 -4.703125 C 3.472656 -6.285156 2.984375 -8.054688 2.984375 -10.015625 L 2.984375 -27.421875 L 8.375 -27.421875 Z M 8.375 -10.125 "/></g></g></g><g fill="#ffffff" fill-opacity="1"><g transform="translate(326.869377, 241.106014)"><g><path d="M 18.171875 -20.78125 C 15.796875 -22.101562 13.722656 -22.765625 11.953125 -22.765625 C 10.765625 -22.765625 9.835938 -22.523438 9.171875 -22.046875 C 8.515625 -21.578125 8.1875 -20.867188 8.1875 -19.921875 C 8.1875 -19.054688 8.664062 -18.296875 9.625 -17.640625 C 10.582031 -16.984375 11.859375 -16.351562 13.453125 -15.75 C 14.742188 -15.28125 15.847656 -14.738281 16.765625 -14.125 C 17.679688 -13.519531 18.441406 -12.679688 19.046875 -11.609375 C 19.660156 -10.546875 19.96875 -9.195312 19.96875 -7.5625 C 19.96875 -6.144531 19.597656 -4.832031 18.859375 -3.625 C 18.128906 -2.425781 17.054688 -1.472656 15.640625 -0.765625 C 14.222656 -0.0546875 12.535156 0.296875 10.578125 0.296875 C 8.941406 0.296875 7.316406 0.0546875 5.703125 -0.421875 C 4.085938 -0.910156 2.582031 -1.648438 1.1875 -2.640625 L 3.578125 -6.859375 C 4.515625 -6.160156 5.59375 -5.585938 6.8125 -5.140625 C 8.03125 -4.691406 9.125 -4.46875 10.09375 -4.46875 C 11.238281 -4.46875 12.234375 -4.707031 13.078125 -5.1875 C 13.921875 -5.675781 14.34375 -6.46875 14.34375 -7.5625 C 14.34375 -8.976562 13.015625 -10.207031 10.359375 -11.25 C 8.796875 -11.875 7.488281 -12.46875 6.4375 -13.03125 C 5.394531 -13.601562 4.492188 -14.421875 3.734375 -15.484375 C 2.984375 -16.554688 2.609375 -17.898438 2.609375 -19.515625 C 2.609375 -21.878906 3.382812 -23.78125 4.9375 -25.21875 C 6.488281 -26.65625 8.554688 -27.4375 11.140625 -27.5625 C 13.171875 -27.5625 14.867188 -27.332031 16.234375 -26.875 C 17.609375 -26.414062 18.941406 -25.765625 20.234375 -24.921875 Z M 18.171875 -20.78125 "/></g></g></g><g fill="#ffffff" fill-opacity="1"><g transform="translate(149.154425, 285.766904)"><g><path d="M 4.1875 -8.03125 L 4.5 -8.46875 L 9.84375 -14.1875 L 12.765625 -14.1875 L 6.890625 -7.984375 L 12.96875 0 L 10.09375 0 L 5.234375 -6.546875 L 4.25 -5.578125 L 4.25 0 L 1.953125 0 L 1.953125 -14.1875 L 4.25 -14.1875 L 4.25 -8.75 Z M 4.1875 -8.03125 "/></g></g></g><g fill="#ffffff" fill-opacity="1"><g transform="translate(170.373833, 285.766904)"><g><path d="M 4.234375 -14.1875 L 4.234375 0 L 1.953125 0 L 1.953125 -14.1875 Z M 4.234375 -14.1875 "/></g></g></g><g fill="#ffffff" fill-opacity="1"><g transform="translate(184.344735, 285.766904)"><g><path d="M 12.46875 -1.109375 C 12.050781 -0.804688 11.472656 -0.519531 10.734375 -0.25 C 10.003906 0.0195312 9.207031 0.15625 8.34375 0.15625 C 6.875 0.15625 5.585938 -0.160156 4.484375 -0.796875 C 3.390625 -1.441406 2.546875 -2.304688 1.953125 -3.390625 C 1.367188 -4.484375 1.078125 -5.675781 1.078125 -6.96875 C 1.078125 -8.382812 1.367188 -9.648438 1.953125 -10.765625 C 2.546875 -11.890625 3.367188 -12.765625 4.421875 -13.390625 C 5.484375 -14.023438 6.691406 -14.34375 8.046875 -14.34375 C 8.878906 -14.34375 9.648438 -14.226562 10.359375 -14 C 11.066406 -13.78125 11.691406 -13.503906 12.234375 -13.171875 L 11.34375 -11.046875 C 10.289062 -11.785156 9.21875 -12.15625 8.125 -12.15625 C 7.289062 -12.15625 6.515625 -11.929688 5.796875 -11.484375 C 5.078125 -11.035156 4.5 -10.425781 4.0625 -9.65625 C 3.632812 -8.882812 3.421875 -8.035156 3.421875 -7.109375 C 3.421875 -6.140625 3.617188 -5.265625 4.015625 -4.484375 C 4.421875 -3.710938 4.988281 -3.109375 5.71875 -2.671875 C 6.445312 -2.242188 7.296875 -2.03125 8.265625 -2.03125 C 8.953125 -2.03125 9.570312 -2.132812 10.125 -2.34375 C 10.675781 -2.550781 11.140625 -2.816406 11.515625 -3.140625 Z M 12.46875 -1.109375 "/></g></g></g><g fill="#ffffff" fill-opacity="1"><g transform="translate(205.681066, 285.766904)"><g><path d="M 4.1875 -8.03125 L 4.5 -8.46875 L 9.84375 -14.1875 L 12.765625 -14.1875 L 6.890625 -7.984375 L 12.96875 0 L 10.09375 0 L 5.234375 -6.546875 L 4.25 -5.578125 L 4.25 0 L 1.953125 0 L 1.953125 -14.1875 L 4.25 -14.1875 L 4.25 -8.75 Z M 4.1875 -8.03125 "/></g></g></g><g fill="#ffffff" fill-opacity="1"><g transform="translate(226.900473, 285.766904)"><g><path d="M 9.390625 -11.296875 C 8.171875 -11.929688 7.085938 -12.25 6.140625 -12.25 C 5.429688 -12.25 4.875 -12.09375 4.46875 -11.78125 C 4.0625 -11.476562 3.859375 -11.050781 3.859375 -10.5 C 3.859375 -9.96875 4.113281 -9.519531 4.625 -9.15625 C 5.132812 -8.800781 5.851562 -8.453125 6.78125 -8.109375 C 7.476562 -7.859375 8.078125 -7.570312 8.578125 -7.25 C 9.078125 -6.9375 9.488281 -6.503906 9.8125 -5.953125 C 10.144531 -5.410156 10.3125 -4.722656 10.3125 -3.890625 C 10.3125 -3.140625 10.117188 -2.457031 9.734375 -1.84375 C 9.359375 -1.238281 8.8125 -0.753906 8.09375 -0.390625 C 7.382812 -0.0234375 6.546875 0.15625 5.578125 0.15625 C 4.710938 0.15625 3.863281 0.0234375 3.03125 -0.234375 C 2.207031 -0.503906 1.46875 -0.875 0.8125 -1.34375 L 1.828125 -3.125 C 2.304688 -2.757812 2.875 -2.453125 3.53125 -2.203125 C 4.1875 -1.960938 4.796875 -1.84375 5.359375 -1.84375 C 6.046875 -1.84375 6.648438 -2.007812 7.171875 -2.34375 C 7.691406 -2.675781 7.953125 -3.1875 7.953125 -3.875 C 7.953125 -4.425781 7.734375 -4.878906 7.296875 -5.234375 C 6.859375 -5.597656 6.25 -5.929688 5.46875 -6.234375 C 4.664062 -6.535156 4 -6.832031 3.46875 -7.125 C 2.9375 -7.414062 2.476562 -7.820312 2.09375 -8.34375 C 1.707031 -8.875 1.515625 -9.535156 1.515625 -10.328125 C 1.515625 -11.484375 1.90625 -12.414062 2.6875 -13.125 C 3.476562 -13.832031 4.519531 -14.210938 5.8125 -14.265625 C 6.738281 -14.265625 7.554688 -14.15625 8.265625 -13.9375 C 8.972656 -13.726562 9.632812 -13.425781 10.25 -13.03125 Z M 9.390625 -11.296875 "/></g></g></g><g fill="#ffffff" fill-opacity="1"><g transform="translate(118.842736, 187.127859)"><g><path d="M 20.226562 1.46875 C 21.367188 1.792969 24.792969 1.46875 26.589844 0.652344 L 29.035156 -0.328125 C 29.6875 -0.488281 30.667969 -0.816406 31.15625 -1.140625 C 31.644531 -1.46875 32.132812 -1.632812 32.296875 -1.632812 C 32.460938 -1.632812 32.949219 -1.792969 33.277344 -1.957031 C 33.765625 -2.285156 34.09375 -2.445312 34.253906 -2.445312 C 34.417969 -2.445312 34.90625 -2.609375 35.398438 -2.9375 C 36.050781 -3.261719 36.375 -3.425781 36.539062 -3.261719 L 37.679688 -3.914062 C 37.679688 -3.914062 38.332031 -4.242188 38.984375 -4.730469 L 39.148438 -4.730469 C 39.476562 -4.894531 39.636719 -5.058594 39.800781 -5.058594 L 43.0625 -6.6875 L 44.207031 -7.339844 L 49.097656 -9.949219 C 49.261719 -9.949219 49.589844 -10.113281 49.75 -10.277344 C 49.914062 -10.277344 50.078125 -10.441406 50.242188 -10.441406 L 51.707031 -11.253906 C 52.035156 -11.582031 52.523438 -11.746094 52.851562 -11.90625 L 53.503906 -12.398438 C 53.667969 -12.398438 53.828125 -12.558594 53.992188 -12.558594 L 59.863281 -16.148438 L 63.453125 -18.433594 C 64.269531 -18.921875 67.53125 -21.367188 67.859375 -21.695312 L 70.304688 -23.652344 C 73.402344 -25.773438 75.523438 -27.402344 76.664062 -28.382812 L 78.625 -29.851562 C 80.253906 -31.15625 82.539062 -32.949219 83.84375 -34.09375 L 86.125 -35.886719 L 88.410156 -37.84375 C 89.0625 -38.332031 89.878906 -39.148438 90.203125 -39.3125 C 90.53125 -39.476562 90.855469 -39.800781 90.855469 -39.964844 C 90.855469 -40.128906 91.183594 -40.289062 91.511719 -40.453125 C 91.835938 -40.617188 92.164062 -40.941406 92.164062 -41.269531 C 92.164062 -41.433594 92.488281 -41.757812 92.816406 -42.085938 C 93.140625 -42.085938 93.46875 -42.410156 93.628906 -42.574219 C 93.792969 -42.738281 93.957031 -42.738281 93.957031 -42.738281 C 94.28125 -42.738281 94.609375 -42.898438 94.773438 -43.226562 C 95.425781 -43.878906 99.011719 -47.46875 100.316406 -48.609375 C 100.972656 -49.097656 101.625 -49.75 101.625 -49.75 C 101.625 -49.914062 101.785156 -50.078125 101.949219 -50.242188 C 102.113281 -50.402344 102.765625 -51.054688 103.253906 -51.707031 L 105.863281 -54.644531 L 108.964844 -57.90625 L 111.246094 -60.515625 L 112.878906 -62.3125 L 114.183594 -63.941406 L 115.976562 -65.898438 L 117.28125 -67.367188 C 118.097656 -68.183594 120.054688 -70.304688 121.851562 -72.589844 C 123.808594 -75.035156 124.296875 -75.6875 124.460938 -75.523438 C 124.460938 -75.523438 124.621094 -75.6875 124.621094 -75.851562 L 126.253906 -78.296875 C 128.699219 -81.558594 130.820312 -84.496094 131.472656 -85.636719 L 132.617188 -87.269531 C 133.921875 -89.390625 136.367188 -93.957031 137.183594 -96.402344 C 138 -98.851562 138.976562 -104.394531 139.140625 -106.84375 C 139.140625 -108.800781 138.652344 -112.878906 138.160156 -114.347656 C 137.835938 -115.652344 136.53125 -117.445312 135.878906 -118.097656 C 135.0625 -118.75 132.777344 -119.238281 130.984375 -119.078125 C 130.007812 -119.078125 128.863281 -118.914062 128.375 -118.75 L 126.253906 -118.261719 L 123.644531 -117.609375 C 119.402344 -116.304688 117.933594 -115.816406 117.609375 -115.652344 L 116.957031 -115.324219 C 116.792969 -115.488281 116.46875 -115.324219 116.304688 -115.164062 L 113.367188 -113.855469 C 109.777344 -112.390625 106.515625 -110.59375 101.460938 -107.820312 C 100.644531 -107.332031 99.664062 -106.84375 98.6875 -106.191406 C 95.425781 -104.394531 91.183594 -101.296875 90.53125 -100.480469 L 89.878906 -99.992188 L 89.714844 -99.992188 C 89.226562 -99.992188 84.007812 -95.585938 83.027344 -94.445312 L 81.722656 -93.140625 C 80.582031 -92.324219 78.625 -90.855469 77.480469 -89.550781 C 75.523438 -87.757812 75.035156 -87.269531 74.054688 -86.453125 L 71.445312 -83.84375 L 69.816406 -82.050781 L 68.183594 -80.582031 L 67.207031 -79.4375 L 65.898438 -77.972656 L 64.59375 -76.339844 C 64.59375 -76.175781 64.269531 -75.851562 63.941406 -75.359375 C 63.453125 -75.035156 62.636719 -73.730469 61.820312 -72.75 L 59.703125 -69.652344 C 57.746094 -67.042969 55.625 -62.800781 55.785156 -62.636719 C 55.949219 -62.148438 56.601562 -62.800781 57.746094 -64.59375 L 59.050781 -66.550781 L 61.007812 -69.324219 L 62.636719 -71.445312 L 64.433594 -73.730469 C 64.921875 -74.546875 65.738281 -75.359375 65.898438 -75.523438 L 67.207031 -76.992188 C 67.367188 -77.320312 67.695312 -77.644531 68.019531 -77.972656 L 68.671875 -78.460938 L 69 -78.785156 L 69.816406 -79.929688 C 69.976562 -80.089844 70.140625 -80.253906 70.140625 -80.417969 L 71.28125 -81.558594 C 71.609375 -81.886719 72.097656 -82.210938 72.589844 -82.375 L 73.078125 -82.703125 L 74.546875 -84.332031 C 75.199219 -85.148438 76.011719 -85.964844 76.339844 -86.125 C 76.992188 -86.617188 80.90625 -90.367188 80.90625 -90.53125 L 82.703125 -92.164062 L 85.148438 -94.28125 C 91.183594 -99.664062 96.078125 -103.417969 102.4375 -107.007812 L 104.070312 -107.984375 C 105.539062 -108.800781 108.964844 -110.433594 110.269531 -111.085938 L 111.898438 -111.738281 L 113.53125 -112.550781 L 117.445312 -114.183594 C 119.238281 -115 126.089844 -116.792969 128.210938 -117.121094 C 130.007812 -117.28125 134.082031 -116.792969 133.59375 -116.46875 C 133.429688 -116.304688 133.59375 -116.140625 133.921875 -115.976562 C 134.410156 -115.488281 135.390625 -113.53125 135.714844 -112.226562 C 136.53125 -109.125 136.855469 -105.046875 136.367188 -103.742188 C 136.203125 -103.417969 136.203125 -103.089844 136.367188 -102.929688 C 136.53125 -102.765625 135.878906 -99.503906 135.226562 -97.707031 L 134.574219 -95.585938 C 134.410156 -94.933594 134.082031 -94.121094 133.921875 -93.792969 C 133.757812 -93.46875 133.59375 -93.304688 133.59375 -93.140625 C 133.757812 -93.140625 133.429688 -92.488281 132.941406 -91.835938 L 132.125 -90.367188 C 132.289062 -90.203125 131.148438 -88.246094 130.167969 -86.941406 C 129.84375 -86.617188 129.191406 -85.3125 129.191406 -84.820312 L 128.699219 -84.332031 C 128.210938 -84.007812 126.417969 -81.558594 126.253906 -81.234375 C 126.089844 -80.90625 125.277344 -79.601562 124.785156 -79.113281 L 123.96875 -78.132812 C 122.992188 -76.828125 118.75 -71.445312 118.425781 -71.121094 L 117.609375 -70.304688 L 116.304688 -68.671875 L 114.183594 -66.550781 L 112.0625 -63.941406 L 110.433594 -61.984375 C 110.269531 -61.660156 109.941406 -61.496094 109.777344 -61.496094 C 109.777344 -61.496094 109.453125 -61.167969 109.125 -60.679688 C 108.800781 -60.191406 108.472656 -59.703125 108.3125 -59.863281 C 108.3125 -59.863281 107.984375 -59.539062 107.820312 -59.210938 C 107.496094 -58.722656 106.515625 -57.746094 105.703125 -56.929688 L 103.253906 -54.15625 L 100.316406 -50.894531 C 99.992188 -50.566406 99.828125 -50.402344 99.664062 -50.566406 C 99.503906 -50.566406 99.503906 -50.566406 99.503906 -50.402344 C 99.664062 -50.242188 99.503906 -49.914062 99.175781 -49.589844 C 98.851562 -49.425781 97.382812 -47.957031 95.914062 -46.488281 C 94.445312 -45.019531 93.140625 -43.714844 92.816406 -43.554688 C 92.488281 -43.390625 92.164062 -43.226562 92.164062 -43.0625 C 92.164062 -42.898438 90.855469 -41.757812 87.105469 -38.496094 L 77.480469 -30.667969 C 75.035156 -28.707031 70.957031 -25.609375 68.511719 -23.976562 C 67.367188 -23.164062 66.0625 -22.183594 65.574219 -21.695312 C 64.433594 -20.714844 60.355469 -17.941406 56.113281 -15.496094 L 53.992188 -14.191406 C 53.339844 -13.703125 52.523438 -13.210938 51.546875 -12.722656 C 50.242188 -12.070312 48.9375 -11.253906 47.46875 -10.601562 C 46.324219 -9.949219 45.347656 -9.460938 44.207031 -8.972656 L 44.042969 -8.972656 L 42.738281 -8.320312 C 42.410156 -8.15625 41.921875 -7.828125 41.433594 -7.667969 L 38.007812 -6.035156 C 37.355469 -5.710938 36.703125 -5.382812 36.210938 -5.21875 L 32.785156 -3.589844 C 32.132812 -3.261719 31.644531 -3.097656 31.644531 -3.261719 C 31.644531 -3.425781 31.480469 -3.261719 31.480469 -3.261719 C 31.320312 -3.097656 30.992188 -2.9375 30.503906 -2.773438 C 30.503906 -2.773438 30.339844 -2.773438 30.339844 -2.609375 C 28.054688 -1.632812 23.488281 -0.328125 22.511719 -0.488281 C 21.695312 -0.652344 20.390625 -1.957031 19.902344 -2.9375 C 19.410156 -4.402344 19.25 -6.363281 19.902344 -7.992188 C 20.714844 -11.09375 21.53125 -13.375 22.347656 -14.519531 C 22.511719 -15.007812 22.835938 -15.660156 22.835938 -15.824219 C 23 -16.3125 27.078125 -23.652344 27.402344 -23.976562 L 29.035156 -26.425781 C 30.175781 -28.382812 33.113281 -32.296875 34.09375 -33.601562 L 36.375 -36.703125 C 37.515625 -38.167969 39.148438 -39.964844 39.800781 -40.78125 L 45.347656 -46.652344 L 47.46875 -48.773438 L 50.894531 -52.035156 C 51.707031 -52.851562 55.132812 -55.949219 55.625 -56.277344 C 55.949219 -56.4375 56.601562 -56.929688 57.089844 -57.582031 L 58.558594 -58.722656 L 58.398438 -58.886719 C 59.539062 -59.703125 60.84375 -60.679688 62.148438 -61.496094 C 65.898438 -64.105469 67.207031 -65.085938 67.042969 -65.246094 C 66.878906 -65.574219 66.550781 -65.574219 65.898438 -65.574219 C 64.757812 -65.410156 64.59375 -65.246094 61.167969 -63.128906 C 57.089844 -60.515625 55.949219 -59.703125 52.6875 -56.929688 L 50.402344 -55.132812 C 50.078125 -54.808594 49.261719 -53.992188 48.445312 -53.339844 L 45.671875 -50.730469 C 44.859375 -50.078125 44.042969 -49.261719 44.042969 -49.261719 C 44.042969 -49.097656 43.714844 -48.609375 43.226562 -48.285156 L 41.433594 -46.488281 L 39.3125 -44.207031 C 38.824219 -43.554688 38.332031 -43.0625 38.167969 -42.898438 C 38.167969 -42.738281 38.007812 -42.574219 38.007812 -42.574219 C 37.84375 -42.738281 37.679688 -42.574219 37.679688 -42.410156 C 37.679688 -42.246094 37.355469 -41.921875 37.191406 -41.757812 C 37.027344 -41.59375 36.050781 -40.78125 35.398438 -39.636719 L 32.785156 -36.375 C 30.828125 -33.765625 26.914062 -28.546875 26.914062 -28.21875 C 26.914062 -28.054688 26.425781 -27.566406 26.097656 -26.914062 C 25.609375 -26.425781 25.121094 -25.445312 24.792969 -24.957031 C 24.632812 -24.46875 24.304688 -23.976562 24.140625 -23.976562 C 23.976562 -24.140625 23.976562 -23.976562 23.976562 -23.816406 C 23.976562 -23.652344 23.976562 -23.488281 23.816406 -23.488281 C 23.652344 -23.488281 23.488281 -23.164062 23.488281 -22.835938 C 23.324219 -22.183594 22.019531 -20.0625 21.53125 -19.902344 C 21.367188 -19.738281 21.367188 -19.574219 21.367188 -19.574219 C 21.367188 -19.25 20.714844 -17.617188 20.390625 -17.453125 C 20.226562 -17.289062 20.226562 -17.128906 20.226562 -16.964844 C 20.226562 -16.800781 20.0625 -16.476562 19.902344 -15.984375 L 19.410156 -15.007812 L 18.59375 -13.539062 C 18.269531 -12.886719 17.617188 -11.253906 17.289062 -9.949219 C 15.332031 -4.566406 16.476562 0 20.226562 1.46875 Z M 20.226562 1.46875 "/></g></g></g><g fill="#ffffff" fill-opacity="1"><g transform="translate(237.915078, 187.127859)"><g><path d="M 9.625 -43.714844 L 13.050781 -44.207031 C 16.148438 -44.859375 21.695312 -46.816406 21.695312 -46.816406 L 23.976562 -47.792969 L 25.773438 -48.609375 L 26.75 -49.097656 C 28.054688 -49.75 28.21875 -49.75 29.523438 -50.242188 C 31.320312 -50.894531 32.132812 -51.21875 30.992188 -51.707031 C 30.667969 -51.871094 29.523438 -51.546875 26.097656 -50.078125 C 23.652344 -49.097656 20.226562 -47.792969 18.59375 -47.304688 C 10.765625 -44.859375 6.851562 -44.367188 6.851562 -46.488281 C 6.6875 -47.140625 7.015625 -47.957031 8.15625 -49.097656 C 9.460938 -50.566406 9.460938 -53.339844 7.015625 -51.546875 C 6.6875 -51.21875 5.871094 -50.894531 5.21875 -50.566406 L 0 -48.285156 L 1.140625 -50.078125 C 1.632812 -51.054688 1.632812 -51.054688 1.140625 -51.707031 C 0.488281 -52.523438 -0.164062 -52.359375 -1.304688 -50.730469 L -2.445312 -49.261719 C -2.773438 -48.445312 -4.078125 -46.488281 -4.730469 -45.835938 L -4.730469 -45.347656 C -5.058594 -44.859375 -4.566406 -44.207031 -3.914062 -44.207031 C -3.75 -44.042969 -3.261719 -44.367188 -2.773438 -44.53125 C -1.304688 -45.511719 3.75 -48.285156 5.382812 -49.097656 L 5.546875 -49.097656 L 5.21875 -48.445312 L 5.21875 -48.285156 L 4.894531 -47.792969 C 4.402344 -46.976562 4.730469 -45.019531 5.382812 -44.53125 C 6.363281 -43.714844 7.992188 -43.554688 9.625 -43.714844 Z M 9.625 -43.714844 "/></g></g></g><g fill="#ffffff" fill-opacity="1"><g transform="translate(149.092332, 310.88495)"><g><path d="M 6.359375 -7.9375 L 6.359375 -6.71875 L 2.359375 -6.71875 L 2.359375 -4.609375 L 5.921875 -4.609375 L 5.921875 -3.375 L 2.359375 -3.375 L 2.359375 -1.21875 L 6.515625 -1.21875 L 6.515625 0 L 1.09375 0 L 1.09375 -7.9375 Z M 6.359375 -7.9375 "/></g></g></g><g fill="#ffffff" fill-opacity="1"><g transform="translate(160.626322, 310.88495)"><g><path d="M 5.25 -6.328125 C 4.570312 -6.679688 3.96875 -6.859375 3.4375 -6.859375 C 3.039062 -6.859375 2.726562 -6.769531 2.5 -6.59375 C 2.269531 -6.425781 2.15625 -6.1875 2.15625 -5.875 C 2.15625 -5.582031 2.296875 -5.332031 2.578125 -5.125 C 2.867188 -4.925781 3.273438 -4.726562 3.796875 -4.53125 C 4.191406 -4.394531 4.523438 -4.238281 4.796875 -4.0625 C 5.078125 -3.882812 5.304688 -3.640625 5.484375 -3.328125 C 5.671875 -3.023438 5.765625 -2.644531 5.765625 -2.1875 C 5.765625 -1.757812 5.660156 -1.375 5.453125 -1.03125 C 5.242188 -0.695312 4.9375 -0.425781 4.53125 -0.21875 C 4.132812 -0.0078125 3.664062 0.09375 3.125 0.09375 C 2.644531 0.09375 2.171875 0.0195312 1.703125 -0.125 C 1.234375 -0.28125 0.816406 -0.488281 0.453125 -0.75 L 1.03125 -1.75 C 1.289062 -1.539062 1.601562 -1.367188 1.96875 -1.234375 C 2.34375 -1.097656 2.6875 -1.03125 3 -1.03125 C 3.382812 -1.03125 3.722656 -1.125 4.015625 -1.3125 C 4.304688 -1.5 4.453125 -1.785156 4.453125 -2.171875 C 4.453125 -2.472656 4.328125 -2.722656 4.078125 -2.921875 C 3.835938 -3.128906 3.5 -3.316406 3.0625 -3.484375 C 2.613281 -3.648438 2.238281 -3.816406 1.9375 -3.984375 C 1.644531 -4.148438 1.390625 -4.378906 1.171875 -4.671875 C 0.953125 -4.960938 0.84375 -5.332031 0.84375 -5.78125 C 0.84375 -6.425781 1.0625 -6.945312 1.5 -7.34375 C 1.945312 -7.738281 2.53125 -7.953125 3.25 -7.984375 C 3.769531 -7.984375 4.226562 -7.921875 4.625 -7.796875 C 5.019531 -7.679688 5.390625 -7.515625 5.734375 -7.296875 Z M 5.25 -6.328125 "/></g></g></g><g fill="#ffffff" fill-opacity="1"><g transform="translate(171.331785, 310.88495)"><g><path d="M 5.828125 -7.9375 L 5.828125 -6.71875 L 3.78125 -6.71875 L 3.78125 0 L 2.515625 0 L 2.515625 -6.71875 L 0.53125 -6.71875 L 0.53125 -7.9375 Z M 5.828125 -7.9375 "/></g></g></g><g fill="#ffffff" fill-opacity="1"><g transform="translate(182.048145, 310.88495)"><g><path d="M 1.09375 -7.9375 L 3.34375 -7.9375 C 4.34375 -7.9375 5.164062 -7.738281 5.8125 -7.34375 C 6.46875 -6.957031 6.941406 -6.453125 7.234375 -5.828125 C 7.535156 -5.210938 7.6875 -4.554688 7.6875 -3.859375 C 7.6875 -3.085938 7.503906 -2.410156 7.140625 -1.828125 C 6.785156 -1.242188 6.304688 -0.789062 5.703125 -0.46875 C 5.097656 -0.15625 4.441406 0 3.734375 0 L 1.09375 0 Z M 3.5 -1.21875 C 4.070312 -1.21875 4.570312 -1.320312 5 -1.53125 C 5.4375 -1.75 5.773438 -2.0625 6.015625 -2.46875 C 6.253906 -2.882812 6.375 -3.378906 6.375 -3.953125 C 6.375 -4.578125 6.238281 -5.097656 5.96875 -5.515625 C 5.707031 -5.929688 5.375 -6.238281 4.96875 -6.4375 C 4.5625 -6.632812 4.140625 -6.734375 3.703125 -6.734375 L 2.359375 -6.734375 L 2.359375 -1.21875 Z M 3.5 -1.21875 "/></g></g></g><g fill="#ffffff" fill-opacity="1"><g transform="translate(194.705011, 310.88495)"><g/></g></g><g fill="#ffffff" fill-opacity="1"><g transform="translate(202.554217, 310.88495)"><g><path d="M 5.609375 -1.21875 L 5.609375 0 L 0.59375 0 L 0.984375 -0.390625 C 1.703125 -1.109375 2.265625 -1.691406 2.671875 -2.140625 C 3.085938 -2.597656 3.429688 -3.054688 3.703125 -3.515625 C 3.972656 -3.984375 4.109375 -4.425781 4.109375 -4.84375 C 4.109375 -5.238281 3.988281 -5.539062 3.75 -5.75 C 3.507812 -5.957031 3.210938 -6.0625 2.859375 -6.0625 C 2.472656 -6.0625 2.171875 -5.953125 1.953125 -5.734375 C 1.742188 -5.515625 1.640625 -5.269531 1.640625 -5 C 1.640625 -4.550781 1.785156 -4.175781 2.078125 -3.875 L 1.296875 -3.171875 C 1.035156 -3.316406 0.820312 -3.578125 0.65625 -3.953125 C 0.5 -4.328125 0.421875 -4.664062 0.421875 -4.96875 C 0.421875 -5.375 0.523438 -5.753906 0.734375 -6.109375 C 0.941406 -6.460938 1.242188 -6.742188 1.640625 -6.953125 C 2.046875 -7.171875 2.523438 -7.28125 3.078125 -7.28125 C 3.535156 -7.28125 3.941406 -7.171875 4.296875 -6.953125 C 4.660156 -6.742188 4.941406 -6.460938 5.140625 -6.109375 C 5.335938 -5.753906 5.4375 -5.367188 5.4375 -4.953125 C 5.4375 -4.535156 5.335938 -4.125 5.140625 -3.71875 C 4.953125 -3.3125 4.722656 -2.929688 4.453125 -2.578125 C 4.191406 -2.234375 3.820312 -1.78125 3.34375 -1.21875 Z M 5.609375 -1.21875 "/></g></g></g><g fill="#ffffff" fill-opacity="1"><g transform="translate(213.01984, 310.88495)"><g><path d="M 3.40625 0.015625 C 2.832031 0.0234375 2.316406 -0.109375 1.859375 -0.390625 C 1.398438 -0.679688 1.035156 -1.101562 0.765625 -1.65625 C 0.503906 -2.207031 0.375 -2.863281 0.375 -3.625 C 0.375 -4.863281 0.644531 -5.78125 1.1875 -6.375 C 1.726562 -6.976562 2.46875 -7.28125 3.40625 -7.28125 C 3.988281 -7.28125 4.507812 -7.132812 4.96875 -6.84375 C 5.425781 -6.5625 5.785156 -6.144531 6.046875 -5.59375 C 6.304688 -5.050781 6.4375 -4.394531 6.4375 -3.625 C 6.4375 -2.84375 6.304688 -2.175781 6.046875 -1.625 C 5.785156 -1.082031 5.425781 -0.671875 4.96875 -0.390625 C 4.507812 -0.109375 3.988281 0.0234375 3.40625 0.015625 Z M 3.40625 -1.1875 C 3.976562 -1.1875 4.40625 -1.410156 4.6875 -1.859375 C 4.96875 -2.304688 5.109375 -2.910156 5.109375 -3.671875 C 5.109375 -4.398438 4.96875 -4.976562 4.6875 -5.40625 C 4.40625 -5.84375 3.976562 -6.054688 3.40625 -6.046875 C 2.832031 -6.054688 2.40625 -5.84375 2.125 -5.40625 C 1.84375 -4.96875 1.703125 -4.375 1.703125 -3.625 C 1.703125 -2.882812 1.84375 -2.289062 2.125 -1.84375 C 2.40625 -1.40625 2.832031 -1.1875 3.40625 -1.1875 Z M 3.40625 -1.1875 "/></g></g></g><g fill="#ffffff" fill-opacity="1"><g transform="translate(224.194068, 310.88495)"><g><path d="M 2.5625 -7.203125 L 2.5625 0 L 1.28125 0 L 1.28125 -5.984375 L 0.5625 -5.984375 L 0.5625 -7.203125 Z M 2.5625 -7.203125 "/></g></g></g><g fill="#ffffff" fill-opacity="1"><g transform="translate(232.20681, 310.88495)"><g><path d="M 5.609375 -1.21875 L 5.609375 0 L 0.59375 0 L 0.984375 -0.390625 C 1.703125 -1.109375 2.265625 -1.691406 2.671875 -2.140625 C 3.085938 -2.597656 3.429688 -3.054688 3.703125 -3.515625 C 3.972656 -3.984375 4.109375 -4.425781 4.109375 -4.84375 C 4.109375 -5.238281 3.988281 -5.539062 3.75 -5.75 C 3.507812 -5.957031 3.210938 -6.0625 2.859375 -6.0625 C 2.472656 -6.0625 2.171875 -5.953125 1.953125 -5.734375 C 1.742188 -5.515625 1.640625 -5.269531 1.640625 -5 C 1.640625 -4.550781 1.785156 -4.175781 2.078125 -3.875 L 1.296875 -3.171875 C 1.035156 -3.316406 0.820312 -3.578125 0.65625 -3.953125 C 0.5 -4.328125 0.421875 -4.664062 0.421875 -4.96875 C 0.421875 -5.375 0.523438 -5.753906 0.734375 -6.109375 C 0.941406 -6.460938 1.242188 -6.742188 1.640625 -6.953125 C 2.046875 -7.171875 2.523438 -7.28125 3.078125 -7.28125 C 3.535156 -7.28125 3.941406 -7.171875 4.296875 -6.953125 C 4.660156 -6.742188 4.941406 -6.460938 5.140625 -6.109375 C 5.335938 -5.753906 5.4375 -5.367188 5.4375 -4.953125 C 5.4375 -4.535156 5.335938 -4.125 5.140625 -3.71875 C 4.953125 -3.3125 4.722656 -2.929688 4.453125 -2.578125 C 4.191406 -2.234375 3.820312 -1.78125 3.34375 -1.21875 Z M 5.609375 -1.21875 "/></g></g></g></svg>