<?xml version="1.0" ?><svg data-name="Your Icons" id="Your_Icons" viewBox="0 0 48 48" xmlns="http://www.w3.org/2000/svg"><title/><path d="M37.6,14l-9.19-4a11,11,0,0,0-8.82,0L10.4,14A4,4,0,0,0,8,17.62v9.1A8,8,0,0,0,19.33,38l.26.11a11,11,0,0,0,8.82,0l9.19-4A4,4,0,0,0,40,30.38V17.62A4,4,0,0,0,37.6,14ZM20.49,19.34,32.65,14l3.73,1.63L28,19.15A10,10,0,0,1,20.49,19.34Zm-5,.08,1.5.64v1.83l-1.5-.68ZM17.31,18,29.6,12.63l.56.25-12,5.29-.25.11Zm3.08-6.26a9,9,0,0,1,6.68-.2L14.78,16.94,11.62,15.6ZM14,38a6,6,0,0,1-6-6,5,5,0,0,1,.09-1,5.09,5.09,0,0,1,.25-1s0,0,0-.05a5.18,5.18,0,0,1,.4-.86l.1-.19a5.88,5.88,0,0,1,.55-.76L9.56,28a5.71,5.71,0,0,1,.71-.68,7.15,7.15,0,0,1,.73-.49l.09-.06a5.82,5.82,0,0,1,1.85-.65h0A5.8,5.8,0,0,1,14,26a6,6,0,0,1,6,6,5.52,5.52,0,0,1-.05.71,1.66,1.66,0,0,1,0,.22,3.55,3.55,0,0,1-.09.47l-.06.24c-.05.16-.1.31-.16.46a1.46,1.46,0,0,1-.07.19c-.08.2-.18.4-.28.6l-.09.14c-.09.15-.18.29-.28.43a1.09,1.09,0,0,1-.13.17,4.16,4.16,0,0,1-.32.39l-.11.12a5.87,5.87,0,0,1-1.09.9h0A5.9,5.9,0,0,1,14,38Zm6.78-1.76c.14-.23.28-.48.4-.72l.12-.26a9.38,9.38,0,0,0,.35-.93.83.83,0,0,0,0-.15,8.23,8.23,0,0,0,.19-.86,2.51,2.51,0,0,0,0-.27A7.31,7.31,0,0,0,22,32a8,8,0,0,0-8-8c-.32,0-.64,0-.95.06l-.18,0a7.69,7.69,0,0,0-1.87.5l-.11,0c-.29.13-.58.27-.86.43h0V17.62a2.08,2.08,0,0,1,.07-.5l3.43,1.45v2.64A2,2,0,0,0,14.67,23l1.5.68a2,2,0,0,0,.83.19,2,2,0,0,0,2-2v-1l.19.08a12.12,12.12,0,0,0,3.81,1v15a9.1,9.1,0,0,1-2.3-.56ZM38,30.38a2,2,0,0,1-1.2,1.84l-9.19,4a9.16,9.16,0,0,1-2.61.69v-15a12,12,0,0,0,3.8-1l9.13-3.87a2.08,2.08,0,0,1,.07.5Z"/><path d="M31.15,22.35,28,23.52a1,1,0,0,0,.34,1.94,1,1,0,0,0,.34-.06l3.2-1.17a1,1,0,1,0-.68-1.88Z"/><path d="M16.5,31H15V29.5a1,1,0,0,0-2,0V31H11.5a1,1,0,0,0,0,2H13v1.5a1,1,0,0,0,2,0V33h1.5a1,1,0,0,0,0-2Z"/></svg>